<svg id="visual" viewBox="0 0 900 600" width="900" height="600" xmlns="http://www.w3.org/2000/svg" xmlns:xlink="http://www.w3.org/1999/xlink" version="1.1"><rect x="0" y="0" width="900" height="600" fill="#002233"></rect><path d="M0 516L21.5 501.8C43 487.7 86 459.3 128.8 451C171.7 442.7 214.3 454.3 257.2 461.8C300 469.3 343 472.7 385.8 462.5C428.7 452.3 471.3 428.7 514.2 431.7C557 434.7 600 464.3 642.8 474.8C685.7 485.3 728.3 476.7 771.2 458C814 439.3 857 410.7 878.5 396.3L900 382L900 601L878.5 601C857 601 814 601 771.2 601C728.3 601 685.7 601 642.8 601C600 601 557 601 514.2 601C471.3 601 428.7 601 385.8 601C343 601 300 601 257.2 601C214.3 601 171.7 601 128.8 601C86 601 43 601 21.5 601L0 601Z" fill="#0066FF" stroke-linecap="round" stroke-linejoin="miter"></path></svg>